<?xml version="1.0" encoding="UTF-8" ?>
<!DOCTYPE svg PUBLIC "-//W3C//DTD SVG 1.1//EN" "http://www.w3.org/Graphics/SVG/1.1/DTD/svg11.dtd">
<svg width="36pt" height="35pt" viewBox="0 0 36 35" version="1.1" xmlns="http://www.w3.org/2000/svg">
<g id="#99a1b3ff">
<path fill="#99a1b3" opacity="1.00" d=" M 15.00 0.00 L 20.00 0.00 C 20.01 5.00 19.97 9.99 20.01 14.99 C 25.34 15.04 30.66 14.98 35.99 14.99 C 35.99 16.66 35.99 18.34 35.99 20.01 C 30.66 20.02 25.34 19.96 20.01 20.01 C 19.97 25.01 20.01 30.00 20.00 35.00 L 15.00 35.00 C 14.99 30.00 15.03 25.01 14.99 20.01 C 9.99 19.97 5.00 20.01 0.00 20.00 L 0.00 14.98 C 5.00 15.01 9.99 15.02 14.99 14.99 C 15.03 9.99 14.99 5.00 15.00 0.00 Z" />
</g>
</svg>
