<?xml version="1.0" encoding="UTF-8" ?>
<!DOCTYPE svg PUBLIC "-//W3C//DTD SVG 1.1//EN" "http://www.w3.org/Graphics/SVG/1.1/DTD/svg11.dtd">
<svg width="44pt" height="34pt" viewBox="0 0 44 34" version="1.1" xmlns="http://www.w3.org/2000/svg">
<g id="#9fa6b7ff">
<path fill="#9fa6b7" opacity="1.00" d=" M 4.92 0.00 L 8.83 0.00 C 9.33 1.34 9.85 2.66 10.35 4.00 C 21.57 4.03 32.78 4.03 44.00 4.00 L 44.00 9.01 C 32.83 8.96 21.66 8.99 10.49 8.99 C 9.98 10.01 9.46 11.03 8.93 12.04 C 7.28 12.03 5.64 12.02 4.00 11.99 C 3.98 11.24 3.95 9.74 3.94 8.99 C 2.62 9.00 1.31 9.00 0.00 9.00 L 0.00 4.00 C 1.16 4.00 2.33 4.00 3.49 4.00 C 4.00 2.68 4.48 1.35 4.92 0.00 Z" />
<path fill="#9fa6b7" opacity="1.00" d=" M 35.23 10.81 C 38.13 10.32 40.51 11.88 40.41 15.00 C 41.61 15.00 42.80 15.00 44.00 15.00 L 44.00 20.00 C 42.69 20.00 41.38 20.00 40.06 19.99 C 40.05 20.74 40.02 22.24 40.00 22.99 C 38.36 23.02 36.71 23.03 35.07 23.04 C 34.54 22.03 34.02 21.01 33.51 19.99 C 22.34 19.99 11.17 19.97 0.00 20.00 L 0.00 15.00 C 11.22 15.03 22.43 15.03 33.65 15.00 C 34.17 13.60 34.70 12.21 35.23 10.81 Z" />
<path fill="#9fa6b7" opacity="1.00" d=" M 8.23 21.81 C 11.13 21.32 13.51 22.88 13.41 26.00 C 23.61 26.03 33.80 26.02 44.00 26.00 L 44.00 31.00 C 33.68 30.97 23.37 30.98 13.05 30.99 C 13.04 31.74 13.01 33.25 13.00 34.00 L 8.13 34.00 C 7.54 33.01 6.98 32.01 6.44 31.00 C 4.29 31.00 2.15 30.99 0.00 31.00 L 0.00 26.00 C 2.22 26.00 4.43 26.00 6.65 26.01 C 7.17 24.61 7.70 23.21 8.23 21.81 Z" />
</g>
</svg>
