<?xml version="1.0" encoding="UTF-8" ?>
<!DOCTYPE svg PUBLIC "-//W3C//DTD SVG 1.1//EN" "http://www.w3.org/Graphics/SVG/1.1/DTD/svg11.dtd">
<svg width="40pt" height="43pt" viewBox="0 0 40 43" version="1.1" xmlns="http://www.w3.org/2000/svg">
<g id="#ffffffff">
</g>
<g id="#99a1b3ff">
<path fill="#99a1b3" opacity="1.00" d=" M 4.43 5.44 C 10.72 -1.42 22.98 -1.11 28.67 6.36 C 33.35 11.95 32.78 20.57 28.20 26.05 C 32.07 30.03 36.34 33.60 40.00 37.76 L 40.00 38.77 C 38.46 40.00 37.27 42.38 35.12 42.38 C 30.73 38.58 26.99 34.06 22.78 30.06 C 16.43 32.55 8.60 31.17 4.11 25.85 C -1.07 20.28 -1.02 10.80 4.43 5.44 M 12.37 6.65 C 7.87 8.21 4.86 13.34 6.06 18.02 C 7.21 23.44 13.36 26.90 18.64 25.48 C 23.72 24.49 27.40 19.06 26.23 13.97 C 25.21 7.87 17.96 4.29 12.37 6.65 Z" />
</g>
</svg>
