<?xml version="1.0" encoding="UTF-8" ?>
<!DOCTYPE svg PUBLIC "-//W3C//DTD SVG 1.1//EN" "http://www.w3.org/Graphics/SVG/1.1/DTD/svg11.dtd">
<svg width="20pt" height="16pt" viewBox="0 0 20 16" version="1.1" xmlns="http://www.w3.org/2000/svg">
<g id="#747b8bff">
<path fill="#747b8b" opacity="1.00" d=" M 0.00 0.00 L 20.00 0.00 L 20.00 1.02 L 19.39 0.19 C 16.39 2.96 13.17 5.51 10.06 8.13 C 6.58 5.66 3.61 2.42 0.00 0.10 L 0.00 0.00 Z" />
<path fill="#747b8b" opacity="1.00" d=" M 0.00 2.17 C 1.17 4.56 4.08 5.27 5.64 7.32 C 3.78 9.22 1.82 11.03 0.00 12.98 L 0.00 2.17 Z" />
<path fill="#747b8b" opacity="1.00" d=" M 19.99 2.88 L 20.00 6.03 L 20.00 13.78 C 19.15 11.00 16.12 9.56 14.35 7.33 C 15.94 5.50 18.16 4.42 19.99 2.88 Z" />
<path fill="#747b8b" opacity="1.00" d=" M 0.00 15.99 C 2.70 13.78 4.32 10.49 7.29 8.58 C 8.80 10.57 11.26 10.37 12.73 8.49 C 15.64 10.24 16.90 14.02 20.00 15.31 L 20.00 16.00 L 0.00 16.00 L 0.00 15.99 Z" />
</g>
<g id="#dfe1e5ff">
</g>
</svg>
